<svg width="1600" height="600" viewBox="0 0 1600 600" fill="none" xmlns="http://www.w3.org/2000/svg">
<rect width="1600" height="600" rx="32" fill="black"/>
<path d="M299 183H994.276L1052.22 293.226L1049.75 183H1221.1L1300 417H1166.86L1127.41 290.147L1128.65 417H1023.86L943.733 295.074L985.03 417H377.897L299 183Z" fill="white"/>
<path d="M435.736 352.64V386H430.264V363.152L420.088 386H416.296L406.072 363.152V386H400.6V352.64H406.504L418.216 378.8L429.88 352.64H435.736ZM467.168 372.128C467.168 373.12 467.104 374.016 466.976 374.816H446.768C446.928 376.928 447.712 378.624 449.12 379.904C450.528 381.184 452.256 381.824 454.304 381.824C457.248 381.824 459.328 380.592 460.544 378.128H466.448C465.648 380.56 464.192 382.56 462.08 384.128C460 385.664 457.408 386.432 454.304 386.432C451.776 386.432 449.504 385.872 447.488 384.752C445.504 383.6 443.936 382 442.784 379.952C441.664 377.872 441.104 375.472 441.104 372.752C441.104 370.032 441.648 367.648 442.736 365.6C443.856 363.52 445.408 361.92 447.392 360.8C449.408 359.68 451.712 359.12 454.304 359.12C456.8 359.12 459.024 359.664 460.976 360.752C462.928 361.84 464.448 363.376 465.536 365.36C466.624 367.312 467.168 369.568 467.168 372.128ZM461.456 370.4C461.424 368.384 460.704 366.768 459.296 365.552C457.888 364.336 456.144 363.728 454.064 363.728C452.176 363.728 450.56 364.336 449.216 365.552C447.872 366.736 447.072 368.352 446.816 370.4H461.456ZM483.209 359.12C485.257 359.12 487.065 359.536 488.633 360.368C490.233 361.168 491.481 362.176 492.377 363.392V359.552H497.897V386.432C497.897 388.864 497.385 391.024 496.361 392.912C495.337 394.832 493.849 396.336 491.897 397.424C489.977 398.512 487.673 399.056 484.985 399.056C481.401 399.056 478.425 398.208 476.057 396.512C473.689 394.848 472.345 392.576 472.025 389.696H477.449C477.865 391.072 478.745 392.176 480.089 393.008C481.465 393.872 483.097 394.304 484.985 394.304C487.193 394.304 488.969 393.632 490.313 392.288C491.689 390.944 492.377 388.992 492.377 386.432V382.016C491.449 383.264 490.185 384.32 488.585 385.184C487.017 386.016 485.225 386.432 483.209 386.432C480.905 386.432 478.793 385.856 476.873 384.704C474.985 383.52 473.481 381.888 472.361 379.808C471.273 377.696 470.729 375.312 470.729 372.656C470.729 370 471.273 367.648 472.361 365.6C473.481 363.552 474.985 361.968 476.873 360.848C478.793 359.696 480.905 359.12 483.209 359.12ZM492.377 372.752C492.377 370.928 491.993 369.344 491.225 368C490.489 366.656 489.513 365.632 488.297 364.928C487.081 364.224 485.769 363.872 484.361 363.872C482.953 363.872 481.641 364.224 480.425 364.928C479.209 365.6 478.217 366.608 477.449 367.952C476.713 369.264 476.345 370.832 476.345 372.656C476.345 374.48 476.713 376.08 477.449 377.456C478.217 378.832 479.209 379.888 480.425 380.624C481.673 381.328 482.985 381.68 484.361 381.68C485.769 381.68 487.081 381.328 488.297 380.624C489.513 379.92 490.489 378.896 491.225 377.552C491.993 376.176 492.377 374.576 492.377 372.752ZM503.26 372.656C503.26 370 503.804 367.648 504.892 365.6C506.012 363.552 507.516 361.968 509.404 360.848C511.324 359.696 513.436 359.12 515.74 359.12C517.82 359.12 519.628 359.536 521.164 360.368C522.732 361.168 523.98 362.176 524.908 363.392V359.552H530.428V386H524.908V382.064C523.98 383.312 522.716 384.352 521.116 385.184C519.516 386.016 517.692 386.432 515.644 386.432C513.372 386.432 511.292 385.856 509.404 384.704C507.516 383.52 506.012 381.888 504.892 379.808C503.804 377.696 503.26 375.312 503.26 372.656ZM524.908 372.752C524.908 370.928 524.524 369.344 523.756 368C523.02 366.656 522.044 365.632 520.828 364.928C519.612 364.224 518.3 363.872 516.892 363.872C515.484 363.872 514.172 364.224 512.956 364.928C511.74 365.6 510.748 366.608 509.98 367.952C509.244 369.264 508.876 370.832 508.876 372.656C508.876 374.48 509.244 376.08 509.98 377.456C510.748 378.832 511.74 379.888 512.956 380.624C514.204 381.328 515.516 381.68 516.892 381.68C518.3 381.68 519.612 381.328 520.828 380.624C522.044 379.92 523.02 378.896 523.756 377.552C524.524 376.176 524.908 374.576 524.908 372.752ZM585.22 352.64V386H579.748V363.152L569.572 386H565.78L555.556 363.152V386H550.084V352.64H555.988L567.7 378.8L579.364 352.64H585.22ZM603.885 386.432C601.389 386.432 599.133 385.872 597.117 384.752C595.101 383.6 593.517 382 592.365 379.952C591.213 377.872 590.637 375.472 590.637 372.752C590.637 370.064 591.229 367.68 592.413 365.6C593.597 363.52 595.213 361.92 597.261 360.8C599.309 359.68 601.597 359.12 604.125 359.12C606.653 359.12 608.941 359.68 610.989 360.8C613.037 361.92 614.653 363.52 615.837 365.6C617.021 367.68 617.613 370.064 617.613 372.752C617.613 375.44 617.005 377.824 615.789 379.904C614.573 381.984 612.909 383.6 610.797 384.752C608.717 385.872 606.413 386.432 603.885 386.432ZM603.885 381.68C605.293 381.68 606.605 381.344 607.821 380.672C609.069 380 610.077 378.992 610.845 377.648C611.613 376.304 611.997 374.672 611.997 372.752C611.997 370.832 611.629 369.216 610.893 367.904C610.157 366.56 609.181 365.552 607.965 364.88C606.749 364.208 605.437 363.872 604.029 363.872C602.621 363.872 601.309 364.208 600.093 364.88C598.909 365.552 597.965 366.56 597.261 367.904C596.557 369.216 596.205 370.832 596.205 372.752C596.205 375.6 596.925 377.808 598.365 379.376C599.837 380.912 601.677 381.68 603.885 381.68ZM621.198 372.656C621.198 370 621.742 367.648 622.83 365.6C623.95 363.552 625.454 361.968 627.342 360.848C629.262 359.696 631.39 359.12 633.726 359.12C635.454 359.12 637.15 359.504 638.814 360.272C640.51 361.008 641.854 362 642.846 363.248V350.48H648.366V386H642.846V382.016C641.95 383.296 640.702 384.352 639.102 385.184C637.534 386.016 635.726 386.432 633.678 386.432C631.374 386.432 629.262 385.856 627.342 384.704C625.454 383.52 623.95 381.888 622.83 379.808C621.742 377.696 621.198 375.312 621.198 372.656ZM642.846 372.752C642.846 370.928 642.462 369.344 641.694 368C640.958 366.656 639.982 365.632 638.766 364.928C637.55 364.224 636.238 363.872 634.83 363.872C633.422 363.872 632.11 364.224 630.894 364.928C629.678 365.6 628.686 366.608 627.918 367.952C627.182 369.264 626.814 370.832 626.814 372.656C626.814 374.48 627.182 376.08 627.918 377.456C628.686 378.832 629.678 379.888 630.894 380.624C632.142 381.328 633.454 381.68 634.83 381.68C636.238 381.68 637.55 381.328 638.766 380.624C639.982 379.92 640.958 378.896 641.694 377.552C642.462 376.176 642.846 374.576 642.846 372.752ZM679.793 372.128C679.793 373.12 679.729 374.016 679.601 374.816H659.393C659.553 376.928 660.337 378.624 661.745 379.904C663.153 381.184 664.881 381.824 666.929 381.824C669.873 381.824 671.953 380.592 673.169 378.128H679.073C678.273 380.56 676.817 382.56 674.705 384.128C672.625 385.664 670.033 386.432 666.929 386.432C664.401 386.432 662.129 385.872 660.113 384.752C658.129 383.6 656.561 382 655.409 379.952C654.289 377.872 653.729 375.472 653.729 372.752C653.729 370.032 654.273 367.648 655.361 365.6C656.481 363.52 658.033 361.92 660.017 360.8C662.033 359.68 664.337 359.12 666.929 359.12C669.425 359.12 671.649 359.664 673.601 360.752C675.553 361.84 677.073 363.376 678.161 365.36C679.249 367.312 679.793 369.568 679.793 372.128ZM674.081 370.4C674.049 368.384 673.329 366.768 671.921 365.552C670.513 364.336 668.769 363.728 666.689 363.728C664.801 363.728 663.185 364.336 661.841 365.552C660.497 366.736 659.697 368.352 659.441 370.4H674.081ZM690.65 350.48V386H685.178V350.48H690.65ZM721.871 386.336C719.407 386.336 717.199 385.936 715.247 385.136C713.295 384.336 711.727 383.152 710.543 381.584C709.391 380.016 708.783 378.128 708.719 375.92H717.455C717.583 377.168 718.015 378.128 718.751 378.8C719.487 379.44 720.447 379.76 721.631 379.76C722.847 379.76 723.807 379.488 724.511 378.944C725.215 378.368 725.567 377.584 725.567 376.592C725.567 375.76 725.279 375.072 724.703 374.528C724.159 373.984 723.471 373.536 722.639 373.184C721.839 372.832 720.687 372.432 719.183 371.984C717.007 371.312 715.231 370.64 713.855 369.968C712.479 369.296 711.295 368.304 710.303 366.992C709.311 365.68 708.815 363.968 708.815 361.856C708.815 358.72 709.951 356.272 712.223 354.512C714.495 352.72 717.455 351.824 721.103 351.824C724.815 351.824 727.807 352.72 730.079 354.512C732.351 356.272 733.567 358.736 733.727 361.904H724.847C724.783 360.816 724.383 359.968 723.647 359.36C722.911 358.72 721.967 358.4 720.815 358.4C719.823 358.4 719.023 358.672 718.415 359.216C717.807 359.728 717.503 360.48 717.503 361.472C717.503 362.56 718.015 363.408 719.039 364.016C720.063 364.624 721.663 365.28 723.839 365.984C726.015 366.72 727.775 367.424 729.119 368.096C730.495 368.768 731.679 369.744 732.671 371.024C733.663 372.304 734.159 373.952 734.159 375.968C734.159 377.888 733.663 379.632 732.671 381.2C731.711 382.768 730.303 384.016 728.447 384.944C726.591 385.872 724.399 386.336 721.871 386.336ZM765.658 359.216V386H757.45V382.352C756.618 383.536 755.482 384.496 754.042 385.232C752.634 385.936 751.066 386.288 749.338 386.288C747.29 386.288 745.482 385.84 743.914 384.944C742.346 384.016 741.13 382.688 740.266 380.96C739.402 379.232 738.97 377.2 738.97 374.864V359.216H747.13V373.76C747.13 375.552 747.594 376.944 748.522 377.936C749.45 378.928 750.698 379.424 752.266 379.424C753.866 379.424 755.13 378.928 756.058 377.936C756.986 376.944 757.45 375.552 757.45 373.76V359.216H765.658ZM779.762 350.48V386H771.554V350.48H779.762Z" fill="black"/>
</svg>
